<?xml version="1.0" encoding="utf-8"?>
<!-- Generator: Adobe Illustrator 25.4.1, SVG Export Plug-In . SVG Version: 6.00 Build 0)  -->
<svg version="1.1" id="Layer_1" xmlns="http://www.w3.org/2000/svg" xmlns:xlink="http://www.w3.org/1999/xlink" x="0px" y="0px"
	 viewBox="0 0 348 104" style="enable-background:new 0 0 348 104;" xml:space="preserve">
<style type="text/css">
	.st0{fill:none;stroke:#303030;stroke-width:0.5616;stroke-miterlimit:10;}
	.st1{fill:#303030;}
	.st2{fill:url(#SVGID_1_);}
	.st3{fill:url(#SVGID_00000016075733847690143080000017102715071409931949_);}
	.st4{fill:url(#SVGID_00000159429616393533934760000004951414673274017967_);}
	.st5{fill:url(#SVGID_00000031191526057513505390000005818991568087171240_);}
	.st6{fill:url(#SVGID_00000011007982938935009910000005969401350800712350_);}
	.st7{fill:url(#SVGID_00000085219634738027313050000014662328965287713441_);}
	.st8{fill:url(#SVGID_00000116937126825749971630000015968681151765257127_);}
	.st9{fill:url(#SVGID_00000173862143834940423230000003879089138460720788_);}
	.st10{fill:url(#SVGID_00000075147876604709078750000002844062016837547428_);}
	.st11{fill:url(#SVGID_00000127042932757551070830000014167371956265263549_);}
	.st12{fill:url(#SVGID_00000157999417780600907670000014142500328645023669_);}
	.st13{fill:url(#SVGID_00000182492470809024542040000013899417949753705111_);}
	.st14{fill:url(#SVGID_00000156549223198864366780000012262214382096289704_);}
	.st15{fill:url(#SVGID_00000150103945186928830940000014460791709953525179_);}
</style>
<polyline class="st0" points="282.6,17.7 339.3,17.7 339.3,55.8 323,55.8 "/>
<polyline class="st0" points="25,55.8 10.9,55.8 10.9,17.7 65.4,17.7 "/>
<g>
	<path class="st1" d="M79,8h16.2c5.9,0,6.8,1.9,6.8,5.8v1.7c0,2.9-1.6,3.6-3.7,3.8v0.1c2.8,0.5,3.5,2,3.5,3.8v5.2h-2.6v-4.5
		c0-3.2-1.5-3.6-4-3.6H81.8v8H79V8z M94.9,18.1c3.1,0,4.4-0.8,4.4-2.9v-1.9c0-2.3-1-3-5-3H81.8v7.8C81.8,18.1,94.9,18.1,94.9,18.1z"
		/>
	<path class="st1" d="M79,8h16.2c5.9,0,6.8,1.9,6.8,5.8v1.7c0,2.9-1.6,3.6-3.7,3.8v0.1c2.8,0.5,3.5,2,3.5,3.8v5.2h-2.6v-4.5
		c0-3.2-1.5-3.6-4-3.6H81.8v8H79V8z M94.9,18.1c3.1,0,4.4-0.8,4.4-2.9v-1.9c0-2.3-1-3-5-3H81.8v7.8C81.8,18.1,94.9,18.1,94.9,18.1z"
		/>
	<path class="st1" d="M79,8h16.2c5.9,0,6.8,1.9,6.8,5.8v1.7c0,2.9-1.6,3.6-3.7,3.8v0.1c2.8,0.5,3.5,2,3.5,3.8v5.2h-2.6v-4.5
		c0-3.2-1.5-3.6-4-3.6H81.8v8H79V8z M94.9,18.1c3.1,0,4.4-0.8,4.4-2.9v-1.9c0-2.3-1-3-5-3H81.8v7.8C81.8,18.1,94.9,18.1,94.9,18.1z"
		/>
	<path class="st1" d="M79,8h16.2c5.9,0,6.8,1.9,6.8,5.8v1.7c0,2.9-1.6,3.6-3.7,3.8v0.1c2.8,0.5,3.5,2,3.5,3.8v5.2h-2.6v-4.5
		c0-3.2-1.5-3.6-4-3.6H81.8v8H79V8z M94.9,18.1c3.1,0,4.4-0.8,4.4-2.9v-1.9c0-2.3-1-3-5-3H81.8v7.8C81.8,18.1,94.9,18.1,94.9,18.1z"
		/>
	<path class="st1" d="M106.9,8h2.8v15.2c0,2,0.7,3.1,4.4,3.1h9.5c3.7,0,4.4-1.2,4.4-3.1V8h2.8v15.2c0,4.1-2.1,5.3-7.2,5.3h-9.4
		c-5.2,0-7.2-1.2-7.2-5.3V8H106.9z"/>
	<path class="st1" d="M106.9,8h2.8v15.2c0,2,0.7,3.1,4.4,3.1h9.5c3.7,0,4.4-1.2,4.4-3.1V8h2.8v15.2c0,4.1-2.1,5.3-7.2,5.3h-9.4
		c-5.2,0-7.2-1.2-7.2-5.3V8H106.9z"/>
	<path class="st1" d="M106.9,8h2.8v15.2c0,2,0.7,3.1,4.4,3.1h9.5c3.7,0,4.4-1.2,4.4-3.1V8h2.8v15.2c0,4.1-2.1,5.3-7.2,5.3h-9.4
		c-5.2,0-7.2-1.2-7.2-5.3V8H106.9z"/>
	<path class="st1" d="M106.9,8h2.8v15.2c0,2,0.7,3.1,4.4,3.1h9.5c3.7,0,4.4-1.2,4.4-3.1V8h2.8v15.2c0,4.1-2.1,5.3-7.2,5.3h-9.4
		c-5.2,0-7.2-1.2-7.2-5.3V8H106.9z"/>
	<path class="st1" d="M138,8h16.7c3.7,0,5.8,0.8,5.8,5.5c0,4.5-0.4,6.8-6.3,6.8h-13.4v8H138V8z M157.8,13.3c0-2.4-1.3-3-3.7-3h-13.3
		v7.8h13.6c2.2,0,3.5-0.8,3.5-2.9v-1.9H157.8z"/>
	<path class="st1" d="M138,8h16.7c3.7,0,5.8,0.8,5.8,5.5c0,4.5-0.4,6.8-6.3,6.8h-13.4v8H138V8z M157.8,13.3c0-2.4-1.3-3-3.7-3h-13.3
		v7.8h13.6c2.2,0,3.5-0.8,3.5-2.9v-1.9H157.8z"/>
	<path class="st1" d="M138,8h16.7c3.7,0,5.8,0.8,5.8,5.5c0,4.5-0.4,6.8-6.3,6.8h-13.4v8H138V8z M157.8,13.3c0-2.4-1.3-3-3.7-3h-13.3
		v7.8h13.6c2.2,0,3.5-0.8,3.5-2.9v-1.9H157.8z"/>
	<path class="st1" d="M138,8h16.7c3.7,0,5.8,0.8,5.8,5.5c0,4.5-0.4,6.8-6.3,6.8h-13.4v8H138V8z M157.8,13.3c0-2.4-1.3-3-3.7-3h-13.3
		v7.8h13.6c2.2,0,3.5-0.8,3.5-2.9v-1.9H157.8z"/>
	<path class="st1" d="M174.4,8h3.4l12.1,20.3h-3.1l-2.5-4.3H168l-2.5,4.3h-3.1L174.4,8z M176.1,10.3l-6.8,11.5h13.6L176.1,10.3z"/>
	<path class="st1" d="M174.4,8h3.4l12.1,20.3h-3.1l-2.5-4.3H168l-2.5,4.3h-3.1L174.4,8z M176.1,10.3l-6.8,11.5h13.6L176.1,10.3z"/>
	<path class="st1" d="M174.4,8h3.4l12.1,20.3h-3.1l-2.5-4.3H168l-2.5,4.3h-3.1L174.4,8z M176.1,10.3l-6.8,11.5h13.6L176.1,10.3z"/>
	<path class="st1" d="M174.4,8h3.4l12.1,20.3h-3.1l-2.5-4.3H168l-2.5,4.3h-3.1L174.4,8z M176.1,10.3l-6.8,11.5h13.6L176.1,10.3z"/>
	<path class="st1" d="M194.7,8h16.2c5.9,0,6.8,1.9,6.8,5.8v1.7c0,2.9-1.6,3.6-3.7,3.8v0.1c2.8,0.5,3.5,2,3.5,3.8v5.2h-2.6v-4.5
		c0-3.2-1.5-3.6-4-3.6h-13.4v8h-2.8V8z M210.6,18.1c3.1,0,4.4-0.8,4.4-2.9v-1.9c0-2.3-1-3-5-3h-12.5v7.8
		C197.5,18.1,210.6,18.1,210.6,18.1z"/>
	<path class="st1" d="M194.7,8h16.2c5.9,0,6.8,1.9,6.8,5.8v1.7c0,2.9-1.6,3.6-3.7,3.8v0.1c2.8,0.5,3.5,2,3.5,3.8v5.2h-2.6v-4.5
		c0-3.2-1.5-3.6-4-3.6h-13.4v8h-2.8V8z M210.6,18.1c3.1,0,4.4-0.8,4.4-2.9v-1.9c0-2.3-1-3-5-3h-12.5v7.8
		C197.5,18.1,210.6,18.1,210.6,18.1z"/>
	<path class="st1" d="M194.7,8h16.2c5.9,0,6.8,1.9,6.8,5.8v1.7c0,2.9-1.6,3.6-3.7,3.8v0.1c2.8,0.5,3.5,2,3.5,3.8v5.2h-2.6v-4.5
		c0-3.2-1.5-3.6-4-3.6h-13.4v8h-2.8V8z M210.6,18.1c3.1,0,4.4-0.8,4.4-2.9v-1.9c0-2.3-1-3-5-3h-12.5v7.8
		C197.5,18.1,210.6,18.1,210.6,18.1z"/>
	<path class="st1" d="M194.7,8h16.2c5.9,0,6.8,1.9,6.8,5.8v1.7c0,2.9-1.6,3.6-3.7,3.8v0.1c2.8,0.5,3.5,2,3.5,3.8v5.2h-2.6v-4.5
		c0-3.2-1.5-3.6-4-3.6h-13.4v8h-2.8V8z M210.6,18.1c3.1,0,4.4-0.8,4.4-2.9v-1.9c0-2.3-1-3-5-3h-12.5v7.8
		C197.5,18.1,210.6,18.1,210.6,18.1z"/>
	<polygon class="st1" points="224.4,8 244.3,8 244.3,10.3 227.1,10.3 227.1,16.8 243.7,16.8 243.7,19 227.1,19 227.1,26.1 
		244.4,26.1 244.4,28.3 224.4,28.3 	"/>
	<polygon class="st1" points="224.4,8 244.3,8 244.3,10.3 227.1,10.3 227.1,16.8 243.7,16.8 243.7,19 227.1,19 227.1,26.1 
		244.4,26.1 244.4,28.3 224.4,28.3 	"/>
	<polygon class="st1" points="224.4,8 244.3,8 244.3,10.3 227.1,10.3 227.1,16.8 243.7,16.8 243.7,19 227.1,19 227.1,26.1 
		244.4,26.1 244.4,28.3 224.4,28.3 	"/>
	<polygon class="st1" points="224.4,8 244.3,8 244.3,10.3 227.1,10.3 227.1,16.8 243.7,16.8 243.7,19 227.1,19 227.1,26.1 
		244.4,26.1 244.4,28.3 224.4,28.3 	"/>
	<polygon class="st1" points="250.5,8 253.2,8 253.2,26.1 269,26.1 269,28.3 250.5,28.3 	"/>
	<polygon class="st1" points="250.5,8 253.2,8 253.2,26.1 269,26.1 269,28.3 250.5,28.3 	"/>
	<polygon class="st1" points="250.5,8 253.2,8 253.2,26.1 269,26.1 269,28.3 250.5,28.3 	"/>
	<polygon class="st1" points="250.5,8 253.2,8 253.2,26.1 269,26.1 269,28.3 250.5,28.3 	"/>
</g>
<g>
	<linearGradient id="SVGID_1_" gradientUnits="userSpaceOnUse" x1="14.4688" y1="30.6988" x2="335.7362" y2="204.1641">
		<stop  offset="0" style="stop-color:#E79C05"/>
		<stop  offset="4.430367e-02" style="stop-color:#E38E08"/>
		<stop  offset="0.1288" style="stop-color:#DA6812"/>
		<stop  offset="0.2437" style="stop-color:#CB2B20"/>
		<stop  offset="0.28" style="stop-color:#C61625"/>
		<stop  offset="0.55" style="stop-color:#B90D25"/>
		<stop  offset="0.77" style="stop-color:#590916"/>
		<stop  offset="1" style="stop-color:#291213"/>
	</linearGradient>
	<polygon class="st2" points="27.5,37.5 32.7,37.5 49.1,67.3 65.6,37.5 70.8,37.5 51.9,71.5 46.3,71.5 	"/>
	
		<linearGradient id="SVGID_00000115473016875972724520000008036197064868526224_" gradientUnits="userSpaceOnUse" x1="14.4688" y1="30.6988" x2="335.7362" y2="204.1641">
		<stop  offset="0" style="stop-color:#E79C05"/>
		<stop  offset="4.430367e-02" style="stop-color:#E38E08"/>
		<stop  offset="0.1288" style="stop-color:#DA6812"/>
		<stop  offset="0.2437" style="stop-color:#CB2B20"/>
		<stop  offset="0.28" style="stop-color:#C61625"/>
		<stop  offset="0.55" style="stop-color:#B90D25"/>
		<stop  offset="0.77" style="stop-color:#590916"/>
		<stop  offset="1" style="stop-color:#291213"/>
	</linearGradient>
	<polygon style="fill:url(#SVGID_00000115473016875972724520000008036197064868526224_);" points="27.5,37.5 32.7,37.5 49.1,67.3 
		65.6,37.5 70.8,37.5 51.9,71.5 46.3,71.5 	"/>
	
		<linearGradient id="SVGID_00000154408642452380727420000013030751156088891322_" gradientUnits="userSpaceOnUse" x1="19.0173" y1="22.2749" x2="340.2846" y2="195.7402">
		<stop  offset="0" style="stop-color:#E79C05"/>
		<stop  offset="4.430367e-02" style="stop-color:#E38E08"/>
		<stop  offset="0.1288" style="stop-color:#DA6812"/>
		<stop  offset="0.2437" style="stop-color:#CB2B20"/>
		<stop  offset="0.28" style="stop-color:#C61625"/>
		<stop  offset="0.55" style="stop-color:#B90D25"/>
		<stop  offset="0.77" style="stop-color:#590916"/>
		<stop  offset="1" style="stop-color:#291213"/>
	</linearGradient>
	<rect x="76.4" y="37.5" style="fill:url(#SVGID_00000154408642452380727420000013030751156088891322_);" width="4.6" height="34"/>
	
		<linearGradient id="SVGID_00000082330009631841487850000007638033628018806443_" gradientUnits="userSpaceOnUse" x1="19.0173" y1="22.2749" x2="340.2846" y2="195.7402">
		<stop  offset="0" style="stop-color:#E79C05"/>
		<stop  offset="4.430367e-02" style="stop-color:#E38E08"/>
		<stop  offset="0.1288" style="stop-color:#DA6812"/>
		<stop  offset="0.2437" style="stop-color:#CB2B20"/>
		<stop  offset="0.28" style="stop-color:#C61625"/>
		<stop  offset="0.55" style="stop-color:#B90D25"/>
		<stop  offset="0.77" style="stop-color:#590916"/>
		<stop  offset="1" style="stop-color:#291213"/>
	</linearGradient>
	<rect x="76.4" y="37.5" style="fill:url(#SVGID_00000082330009631841487850000007638033628018806443_);" width="4.6" height="34"/>
	
		<linearGradient id="SVGID_00000062887226106537698800000013202145966970309820_" gradientUnits="userSpaceOnUse" x1="27.7981" y1="6.0123" x2="349.0654" y2="179.4776">
		<stop  offset="0" style="stop-color:#E79C05"/>
		<stop  offset="4.430367e-02" style="stop-color:#E38E08"/>
		<stop  offset="0.1288" style="stop-color:#DA6812"/>
		<stop  offset="0.2437" style="stop-color:#CB2B20"/>
		<stop  offset="0.28" style="stop-color:#C61625"/>
		<stop  offset="0.55" style="stop-color:#B90D25"/>
		<stop  offset="0.77" style="stop-color:#590916"/>
		<stop  offset="1" style="stop-color:#291213"/>
	</linearGradient>
	<polygon style="fill:url(#SVGID_00000062887226106537698800000013202145966970309820_);" points="86.6,37.5 91.8,37.5 108.2,67.3 
		124.7,37.5 129.8,37.5 111,71.5 105.4,71.5 	"/>
	
		<linearGradient id="SVGID_00000049221348177457063840000010232610636160661893_" gradientUnits="userSpaceOnUse" x1="27.7981" y1="6.0123" x2="349.0654" y2="179.4776">
		<stop  offset="0" style="stop-color:#E79C05"/>
		<stop  offset="4.430367e-02" style="stop-color:#E38E08"/>
		<stop  offset="0.1288" style="stop-color:#DA6812"/>
		<stop  offset="0.2437" style="stop-color:#CB2B20"/>
		<stop  offset="0.28" style="stop-color:#C61625"/>
		<stop  offset="0.55" style="stop-color:#B90D25"/>
		<stop  offset="0.77" style="stop-color:#590916"/>
		<stop  offset="1" style="stop-color:#291213"/>
	</linearGradient>
	<polygon style="fill:url(#SVGID_00000049221348177457063840000010232610636160661893_);" points="86.6,37.5 91.8,37.5 108.2,67.3 
		124.7,37.5 129.8,37.5 111,71.5 105.4,71.5 	"/>
	
		<linearGradient id="SVGID_00000058589034009459514720000005801995701110947217_" gradientUnits="userSpaceOnUse" x1="32.4707" y1="-2.6416" x2="353.738" y2="170.8238">
		<stop  offset="0" style="stop-color:#E79C05"/>
		<stop  offset="4.430367e-02" style="stop-color:#E38E08"/>
		<stop  offset="0.1288" style="stop-color:#DA6812"/>
		<stop  offset="0.2437" style="stop-color:#CB2B20"/>
		<stop  offset="0.28" style="stop-color:#C61625"/>
		<stop  offset="0.55" style="stop-color:#B90D25"/>
		<stop  offset="0.77" style="stop-color:#590916"/>
		<stop  offset="1" style="stop-color:#291213"/>
	</linearGradient>
	<path style="fill:url(#SVGID_00000058589034009459514720000005801995701110947217_);" d="M145.5,37.5h5.7l20.2,34h-5.2l-4.2-7.2
		h-27.2l-4.2,7.2h-5.2L145.5,37.5z M148.4,41.3L137,60.5h22.8L148.4,41.3z"/>
	
		<linearGradient id="SVGID_00000089551567423085593290000012882276955927250320_" gradientUnits="userSpaceOnUse" x1="32.4707" y1="-2.6416" x2="353.738" y2="170.8238">
		<stop  offset="0" style="stop-color:#E79C05"/>
		<stop  offset="4.430367e-02" style="stop-color:#E38E08"/>
		<stop  offset="0.1288" style="stop-color:#DA6812"/>
		<stop  offset="0.2437" style="stop-color:#CB2B20"/>
		<stop  offset="0.28" style="stop-color:#C61625"/>
		<stop  offset="0.55" style="stop-color:#B90D25"/>
		<stop  offset="0.77" style="stop-color:#590916"/>
		<stop  offset="1" style="stop-color:#291213"/>
	</linearGradient>
	<path style="fill:url(#SVGID_00000089551567423085593290000012882276955927250320_);" d="M145.5,37.5h5.7l20.2,34h-5.2l-4.2-7.2
		h-27.2l-4.2,7.2h-5.2L145.5,37.5z M148.4,41.3L137,60.5h22.8L148.4,41.3z"/>
	
		<linearGradient id="SVGID_00000137823238675617476680000004973875171497484971_" gradientUnits="userSpaceOnUse" x1="45.8563" y1="-27.4326" x2="367.1237" y2="146.0327">
		<stop  offset="0" style="stop-color:#E79C05"/>
		<stop  offset="4.430367e-02" style="stop-color:#E38E08"/>
		<stop  offset="0.1288" style="stop-color:#DA6812"/>
		<stop  offset="0.2437" style="stop-color:#CB2B20"/>
		<stop  offset="0.28" style="stop-color:#C61625"/>
		<stop  offset="0.55" style="stop-color:#B90D25"/>
		<stop  offset="0.77" style="stop-color:#590916"/>
		<stop  offset="1" style="stop-color:#291213"/>
	</linearGradient>
	<polygon style="fill:url(#SVGID_00000137823238675617476680000004973875171497484971_);" points="176.3,37.5 183.2,37.5 
		214.3,67.3 214.3,37.5 218.9,37.5 218.9,71.5 212,71.5 180.9,41.6 180.9,71.5 176.3,71.5 	"/>
	
		<linearGradient id="SVGID_00000139267706743113999860000012010283615439349416_" gradientUnits="userSpaceOnUse" x1="45.8563" y1="-27.4326" x2="367.1237" y2="146.0327">
		<stop  offset="0" style="stop-color:#E79C05"/>
		<stop  offset="4.430367e-02" style="stop-color:#E38E08"/>
		<stop  offset="0.1288" style="stop-color:#DA6812"/>
		<stop  offset="0.2437" style="stop-color:#CB2B20"/>
		<stop  offset="0.28" style="stop-color:#C61625"/>
		<stop  offset="0.55" style="stop-color:#B90D25"/>
		<stop  offset="0.77" style="stop-color:#590916"/>
		<stop  offset="1" style="stop-color:#291213"/>
	</linearGradient>
	<polygon style="fill:url(#SVGID_00000139267706743113999860000012010283615439349416_);" points="176.3,37.5 183.2,37.5 
		214.3,67.3 214.3,37.5 218.9,37.5 218.9,71.5 212,71.5 180.9,41.6 180.9,71.5 176.3,71.5 	"/>
	
		<linearGradient id="SVGID_00000119829464883206885470000009994492682908521601_" gradientUnits="userSpaceOnUse" x1="56.3753" y1="-46.9142" x2="377.6426" y2="126.5511">
		<stop  offset="0" style="stop-color:#E79C05"/>
		<stop  offset="4.430367e-02" style="stop-color:#E38E08"/>
		<stop  offset="0.1288" style="stop-color:#DA6812"/>
		<stop  offset="0.2437" style="stop-color:#CB2B20"/>
		<stop  offset="0.28" style="stop-color:#C61625"/>
		<stop  offset="0.55" style="stop-color:#B90D25"/>
		<stop  offset="0.77" style="stop-color:#590916"/>
		<stop  offset="1" style="stop-color:#291213"/>
	</linearGradient>
	<polygon style="fill:url(#SVGID_00000119829464883206885470000009994492682908521601_);" points="225.1,67.9 256.1,41.3 226,41.3 
		226,37.5 263.3,37.5 263.3,40.8 232.1,67.7 263.9,67.7 263.9,71.5 225.1,71.5 	"/>
	
		<linearGradient id="SVGID_00000011033570141834597040000001745589563984144777_" gradientUnits="userSpaceOnUse" x1="56.3753" y1="-46.9142" x2="377.6426" y2="126.5511">
		<stop  offset="0" style="stop-color:#E79C05"/>
		<stop  offset="4.430367e-02" style="stop-color:#E38E08"/>
		<stop  offset="0.1288" style="stop-color:#DA6812"/>
		<stop  offset="0.2437" style="stop-color:#CB2B20"/>
		<stop  offset="0.28" style="stop-color:#C61625"/>
		<stop  offset="0.55" style="stop-color:#B90D25"/>
		<stop  offset="0.77" style="stop-color:#590916"/>
		<stop  offset="1" style="stop-color:#291213"/>
	</linearGradient>
	<polygon style="fill:url(#SVGID_00000011033570141834597040000001745589563984144777_);" points="225.1,67.9 256.1,41.3 226,41.3 
		226,37.5 263.3,37.5 263.3,40.8 232.1,67.7 263.9,67.7 263.9,71.5 225.1,71.5 	"/>
	
		<linearGradient id="SVGID_00000012458621342737839800000011639042315345347204_" gradientUnits="userSpaceOnUse" x1="64.3548" y1="-61.6927" x2="385.6004" y2="111.7609">
		<stop  offset="0" style="stop-color:#E79C05"/>
		<stop  offset="4.430367e-02" style="stop-color:#E38E08"/>
		<stop  offset="0.1288" style="stop-color:#DA6812"/>
		<stop  offset="0.2437" style="stop-color:#CB2B20"/>
		<stop  offset="0.28" style="stop-color:#C61625"/>
		<stop  offset="0.55" style="stop-color:#B90D25"/>
		<stop  offset="0.77" style="stop-color:#590916"/>
		<stop  offset="1" style="stop-color:#291213"/>
	</linearGradient>
	<path style="fill:url(#SVGID_00000012458621342737839800000011639042315345347204_);" d="M286.8,37.5h5.7l20.2,34h-5.2l-4.2-7.2
		H276l-4.2,7.2h-5.2L286.8,37.5z M289.6,41.3l-11.4,19.3H301L289.6,41.3z"/>
	
		<linearGradient id="SVGID_00000127044657497386238660000011101776959196684188_" gradientUnits="userSpaceOnUse" x1="64.3548" y1="-61.6927" x2="385.6004" y2="111.7609">
		<stop  offset="0" style="stop-color:#E79C05"/>
		<stop  offset="4.430367e-02" style="stop-color:#E38E08"/>
		<stop  offset="0.1288" style="stop-color:#DA6812"/>
		<stop  offset="0.2437" style="stop-color:#CB2B20"/>
		<stop  offset="0.28" style="stop-color:#C61625"/>
		<stop  offset="0.55" style="stop-color:#B90D25"/>
		<stop  offset="0.77" style="stop-color:#590916"/>
		<stop  offset="1" style="stop-color:#291213"/>
	</linearGradient>
	<path style="fill:url(#SVGID_00000127044657497386238660000011101776959196684188_);" d="M286.8,37.5h5.7l20.2,34h-5.2l-4.2-7.2
		H276l-4.2,7.2h-5.2L286.8,37.5z M289.6,41.3l-11.4,19.3H301L289.6,41.3z"/>
</g>
<g>
	<path class="st1" d="M35.8,93.6c-0.1,0-0.2,0-0.3-0.1s-0.1-0.2-0.1-0.3V81.1c0-0.1,0-0.2,0.1-0.3c0.1-0.1,0.2-0.1,0.3-0.1h5.4
		c1,0,1.8,0.2,2.4,0.5s1.1,0.7,1.4,1.3c0.3,0.5,0.5,1.2,0.5,1.9c0,0.5-0.1,0.9-0.3,1.2c-0.2,0.4-0.4,0.6-0.6,0.9s-0.5,0.4-0.7,0.5
		c0.5,0.2,0.9,0.6,1.3,1.1s0.6,1.1,0.6,1.9c0,0.7-0.2,1.4-0.5,2s-0.8,1-1.5,1.4c-0.7,0.3-1.5,0.5-2.4,0.5h-5.6V93.6z M37.9,86h2.9
		c0.7,0,1.1-0.2,1.5-0.5c0.3-0.3,0.5-0.7,0.5-1.2s-0.2-0.9-0.5-1.2s-0.8-0.4-1.5-0.4h-2.9V86z M37.9,91.7H41c0.7,0,1.2-0.2,1.5-0.5
		c0.3-0.4,0.5-0.8,0.5-1.3s-0.2-1-0.5-1.4S41.6,88,41,88h-3.1V91.7z"/>
	<path class="st1" d="M54.1,93.6c-0.1,0-0.2,0-0.3-0.1s-0.1-0.2-0.1-0.3V89l-4.4-7.8v-0.1V81c0-0.1,0-0.2,0.1-0.3s0.2-0.1,0.3-0.1
		h1.7c0.1,0,0.3,0,0.4,0.1s0.2,0.2,0.2,0.2l3.2,5.4l3.1-5.4c0-0.1,0.1-0.2,0.2-0.2s0.2-0.1,0.4-0.1h1.6c0.1,0,0.2,0,0.3,0.1
		s0.1,0.2,0.1,0.3v0.1v0.1L56.3,89v4.2c0,0.1,0,0.2-0.1,0.3c-0.1,0.1-0.2,0.1-0.3,0.1H54.1z"/>
	<path class="st1" d="M69.8,93.8c-1.1,0-2.1-0.2-2.9-0.6s-1.4-1-1.8-1.7s-0.7-1.6-0.7-2.7c0-0.5,0-1.1,0-1.6c0-0.6,0-1.1,0-1.7
		c0-1,0.3-1.9,0.7-2.7c0.4-0.8,1-1.3,1.8-1.7c0.8-0.4,1.8-0.6,2.9-0.6c0.8,0,1.6,0.1,2.3,0.3c0.7,0.2,1.2,0.5,1.7,0.9
		s0.8,0.8,1.1,1.4s0.4,1.1,0.4,1.7c0,0.1,0,0.2-0.1,0.3s-0.2,0.1-0.3,0.1h-1.8c-0.1,0-0.2,0-0.3-0.1c-0.1-0.1-0.1-0.2-0.2-0.3
		c-0.2-0.8-0.5-1.4-1-1.7s-1.1-0.4-1.8-0.4c-0.8,0-1.5,0.2-2,0.7S67,84.6,67,85.7c0,1,0,2.1,0,3.1s0.3,1.8,0.8,2.3s1.2,0.7,2,0.7
		c0.7,0,1.3-0.2,1.8-0.5s0.8-0.9,1-1.7c0-0.2,0.1-0.3,0.2-0.4s0.2-0.1,0.3-0.1h1.8c0.1,0,0.2,0,0.3,0.1s0.1,0.2,0.1,0.3
		c0,0.6-0.1,1.2-0.4,1.7s-0.6,1-1.1,1.4s-1,0.7-1.7,0.9C71.4,93.7,70.7,93.8,69.8,93.8z"/>
	<path class="st1" d="M84.9,93.8c-1.1,0-2-0.2-2.8-0.5c-0.8-0.4-1.4-0.9-1.8-1.7c-0.4-0.8-0.6-1.7-0.6-2.9v-7.5c0-0.1,0-0.2,0.1-0.3
		c0.1-0.1,0.2-0.1,0.3-0.1h1.7c0.1,0,0.2,0,0.3,0.1c0.1,0.1,0.1,0.2,0.1,0.3v7.5c0,1,0.2,1.8,0.7,2.3s1.1,0.7,2,0.7s1.5-0.2,2-0.7
		s0.7-1.2,0.7-2.3v-7.5c0-0.1,0-0.2,0.1-0.3c0.1-0.1,0.2-0.1,0.3-0.1h1.7c0.1,0,0.2,0,0.3,0.1c0.1,0.1,0.1,0.2,0.1,0.3v7.5
		c0,1.2-0.2,2.2-0.6,2.9c-0.4,0.8-1,1.3-1.8,1.7C86.9,93.6,86,93.8,84.9,93.8z"/>
	<path class="st1" d="M95.6,93.6c-0.1,0-0.2,0-0.3-0.1c-0.1-0.1-0.1-0.2-0.1-0.3V81.1c0-0.1,0-0.2,0.1-0.3c0.1-0.1,0.2-0.1,0.3-0.1
		h1.7c0.1,0,0.2,0,0.3,0.1c0.1,0.1,0.1,0.2,0.1,0.3v10.3h5.9c0.1,0,0.2,0,0.3,0.1c0.1,0.1,0.1,0.2,0.1,0.3v1.3c0,0.1,0,0.2-0.1,0.3
		c-0.1,0.1-0.2,0.1-0.3,0.1L95.6,93.6L95.6,93.6z"/>
	<path class="st1" d="M108.6,93.6c-0.1,0-0.2,0-0.3-0.1c-0.1-0.1-0.1-0.2-0.1-0.3V81.1c0-0.1,0-0.2,0.1-0.3c0.1-0.1,0.2-0.1,0.3-0.1
		h1.7c0.1,0,0.2,0,0.3,0.1c0.1,0.1,0.1,0.2,0.1,0.3v10.3h5.9c0.1,0,0.2,0,0.3,0.1c0.1,0.1,0.1,0.2,0.1,0.3v1.3c0,0.1,0,0.2-0.1,0.3
		c-0.1,0.1-0.2,0.1-0.3,0.1L108.6,93.6L108.6,93.6z"/>
	<path class="st1" d="M120.4,93.6c-0.1,0-0.2,0-0.3-0.1c-0.1-0.1-0.1-0.2-0.1-0.3c0,0,0-0.1,0-0.2l4.5-12c0-0.1,0.1-0.2,0.2-0.3
		s0.3-0.1,0.4-0.1h2c0.2,0,0.3,0,0.4,0.1s0.2,0.2,0.2,0.3l4.5,12c0,0.1,0,0.1,0,0.2s0,0.2-0.1,0.3s-0.2,0.1-0.3,0.1h-1.6
		c-0.2,0-0.3,0-0.4-0.1c-0.1-0.1-0.1-0.2-0.2-0.2l-0.9-2.3h-5.5l-0.9,2.3c0,0.1-0.1,0.2-0.2,0.2c-0.1,0.1-0.2,0.1-0.4,0.1H120.4z
		 M124,88.9h4.2l-2.1-5.7L124,88.9z"/>
	<path class="st1" d="M135.9,95c-0.1,0-0.2,0-0.3-0.1s-0.1-0.2-0.1-0.3l0.5-3.2c0-0.2,0.1-0.3,0.2-0.4c0.1-0.1,0.2-0.2,0.4-0.2h1.7
		c0.1,0,0.2,0,0.2,0.1c0.1,0.1,0.1,0.2,0.1,0.3c0,0.1,0,0.2-0.1,0.2l-1.2,3.1c0,0.1-0.1,0.2-0.2,0.3S137,95,136.8,95H135.9z"/>
	<path class="st1" d="M154.3,93.8c-1.1,0-2.1-0.2-2.9-0.5c-0.8-0.3-1.4-0.8-1.8-1.3c-0.4-0.5-0.6-1.1-0.6-1.7c0-0.1,0-0.2,0.1-0.3
		s0.2-0.1,0.3-0.1h1.7c0.2,0,0.3,0,0.4,0.1c0.1,0.1,0.2,0.2,0.2,0.2c0.1,0.2,0.2,0.5,0.4,0.7s0.5,0.4,0.9,0.6
		c0.4,0.1,0.8,0.2,1.4,0.2c0.9,0,1.6-0.1,2-0.4s0.7-0.7,0.7-1.2c0-0.4-0.1-0.6-0.4-0.9c-0.2-0.2-0.6-0.4-1.1-0.6s-1.1-0.4-1.9-0.6
		c-0.9-0.2-1.7-0.5-2.3-0.8s-1.1-0.7-1.4-1.2s-0.5-1.1-0.5-1.8c0-0.7,0.2-1.4,0.6-1.9s0.9-1,1.7-1.3c0.7-0.3,1.6-0.5,2.6-0.5
		c0.8,0,1.5,0.1,2.1,0.3c0.6,0.2,1.1,0.5,1.5,0.9s0.7,0.7,0.9,1.1s0.3,0.8,0.3,1.2c0,0.1,0,0.2-0.1,0.3s-0.2,0.1-0.3,0.1h-1.7
		c-0.1,0-0.2,0-0.3-0.1c-0.1,0-0.2-0.1-0.2-0.3c-0.1-0.4-0.3-0.7-0.7-1s-0.9-0.4-1.6-0.4c-0.7,0-1.2,0.1-1.6,0.4s-0.6,0.6-0.6,1.1
		c0,0.3,0.1,0.6,0.3,0.9c0.2,0.2,0.5,0.4,1,0.6s1,0.4,1.8,0.6c1.1,0.2,1.9,0.5,2.6,0.8c0.7,0.3,1.2,0.7,1.5,1.2s0.5,1.1,0.5,1.8
		c0,0.8-0.2,1.5-0.7,2.1s-1.1,1-1.8,1.3C156.3,93.7,155.4,93.8,154.3,93.8z"/>
	<path class="st1" d="M169,93.8c-1.1,0-2-0.2-2.8-0.5c-0.8-0.4-1.4-0.9-1.9-1.7c-0.4-0.8-0.7-1.7-0.7-2.8c0-0.5,0-1.1,0-1.6
		s0-1.1,0-1.6c0-1.1,0.3-2.1,0.7-2.8c0.5-0.8,1.1-1.3,1.9-1.7c0.8-0.4,1.7-0.6,2.8-0.6s2,0.2,2.8,0.6s1.4,1,1.9,1.7s0.7,1.7,0.7,2.8
		c0,0.5,0,1.1,0,1.6s0,1,0,1.6c0,1.1-0.3,2.1-0.7,2.8c-0.4,0.8-1.1,1.3-1.9,1.7C171,93.6,170.1,93.8,169,93.8z M169,91.7
		c0.8,0,1.5-0.2,2-0.7s0.8-1.3,0.8-2.3c0-0.5,0-1,0-1.5s0-1,0-1.5c0-0.7-0.2-1.3-0.4-1.8s-0.6-0.8-1-1s-0.9-0.3-1.4-0.3
		s-1,0.1-1.4,0.3c-0.4,0.2-0.7,0.5-1,1s-0.4,1-0.4,1.8c0,0.5,0,1,0,1.5s0,1,0,1.5c0,1.1,0.3,1.9,0.8,2.3
		C167.5,91.5,168.2,91.7,169,91.7z"/>
	<path class="st1" d="M184.3,93.8c-1.1,0-2-0.2-2.8-0.5c-0.8-0.4-1.4-0.9-1.8-1.7c-0.4-0.8-0.7-1.7-0.7-2.9v-7.5
		c0-0.1,0-0.2,0.1-0.3c0.1-0.1,0.2-0.1,0.3-0.1h1.7c0.1,0,0.2,0,0.3,0.1s0.1,0.2,0.1,0.3v7.5c0,1,0.2,1.8,0.7,2.3s1.1,0.7,2,0.7
		s1.5-0.2,2-0.7s0.7-1.2,0.7-2.3v-7.5c0-0.1,0-0.2,0.1-0.3c0.1-0.1,0.2-0.1,0.3-0.1h1.7c0.1,0,0.2,0,0.3,0.1s0.1,0.2,0.1,0.3v7.5
		c0,1.2-0.2,2.2-0.6,2.9c-0.4,0.8-1,1.3-1.8,1.7C186.3,93.6,185.3,93.8,184.3,93.8z"/>
	<path class="st1" d="M197.8,93.6c-0.1,0-0.2,0-0.3-0.1s-0.1-0.2-0.1-0.3V82.9H194c-0.1,0-0.2,0-0.3-0.1s-0.1-0.2-0.1-0.3v-1.4
		c0-0.1,0-0.2,0.1-0.3c0.1-0.1,0.2-0.1,0.3-0.1h9.5c0.1,0,0.2,0,0.3,0.1s0.1,0.2,0.1,0.3v1.4c0,0.1,0,0.2-0.1,0.3
		c-0.1,0.1-0.2,0.1-0.3,0.1H200v10.3c0,0.1,0,0.2-0.1,0.3c-0.1,0.1-0.2,0.1-0.3,0.1C199.6,93.6,197.8,93.6,197.8,93.6z"/>
	<path class="st1" d="M208.4,93.6c-0.1,0-0.2,0-0.3-0.1s-0.1-0.2-0.1-0.3V81.1c0-0.1,0-0.2,0.1-0.3c0.1-0.1,0.2-0.1,0.3-0.1h1.7
		c0.1,0,0.2,0,0.3,0.1s0.1,0.2,0.1,0.3v4.8h5.5v-4.8c0-0.1,0-0.2,0.1-0.3c0.1-0.1,0.2-0.1,0.3-0.1h1.7c0.1,0,0.2,0,0.3,0.1
		s0.1,0.2,0.1,0.3v12.1c0,0.1,0,0.2-0.1,0.3c-0.1,0.1-0.2,0.1-0.3,0.1h-1.7c-0.1,0-0.2,0-0.3-0.1s-0.1-0.2-0.1-0.3v-5h-5.5v5
		c0,0.1,0,0.2-0.1,0.3c-0.1,0.1-0.2,0.1-0.3,0.1H208.4z"/>
	<path class="st1" d="M230.7,93.6c-0.1,0-0.2,0-0.3-0.1s-0.1-0.2-0.1-0.3V81.1c0-0.1,0-0.2,0.1-0.3c0.1-0.1,0.2-0.1,0.3-0.1h1.5
		c0.2,0,0.3,0,0.4,0.1s0.1,0.2,0.2,0.2l3.6,6.7L240,81c0,0,0.1-0.1,0.2-0.2c0.1-0.1,0.2-0.1,0.4-0.1h1.4c0.1,0,0.2,0,0.3,0.1
		s0.1,0.2,0.1,0.3v12.1c0,0.1,0,0.2-0.1,0.3c-0.1,0.1-0.2,0.1-0.3,0.1h-1.6c-0.1,0-0.2,0-0.3-0.1s-0.1-0.2-0.1-0.3v-8l-2.6,5
		c-0.1,0.1-0.1,0.2-0.2,0.3c-0.1,0.1-0.2,0.1-0.4,0.1H236c-0.2,0-0.3,0-0.4-0.1c-0.1-0.1-0.2-0.2-0.2-0.3l-2.6-5v8
		c0,0.1,0,0.2-0.1,0.3c-0.1,0.1-0.2,0.1-0.3,0.1H230.7z"/>
	<path class="st1" d="M252.6,93.8c-1.1,0-2-0.2-2.8-0.5c-0.8-0.4-1.4-0.9-1.8-1.7c-0.4-0.8-0.6-1.7-0.6-2.9v-7.5
		c0-0.1,0-0.2,0.1-0.3c0.1-0.1,0.2-0.1,0.3-0.1h1.7c0.1,0,0.2,0,0.3,0.1s0.1,0.2,0.1,0.3v7.5c0,1,0.2,1.8,0.7,2.3s1.1,0.7,2,0.7
		c0.8,0,1.5-0.2,2-0.7s0.7-1.2,0.7-2.3v-7.5c0-0.1,0-0.2,0.1-0.3c0.1-0.1,0.2-0.1,0.3-0.1h1.7c0.1,0,0.2,0,0.3,0.1
		c0.1,0.1,0.1,0.2,0.1,0.3v7.5c0,1.2-0.2,2.2-0.6,2.9c-0.4,0.8-1,1.3-1.8,1.7C254.7,93.6,253.7,93.8,252.6,93.8z"/>
	<path class="st1" d="M263.4,93.6c-0.1,0-0.2,0-0.3-0.1c-0.1-0.1-0.1-0.2-0.1-0.3V81.1c0-0.1,0-0.2,0.1-0.3c0.1-0.1,0.2-0.1,0.3-0.1
		h1.5c0.2,0,0.3,0,0.4,0.1s0.1,0.2,0.2,0.2l3.6,6.7l3.6-6.7c0,0,0.1-0.1,0.2-0.2s0.2-0.1,0.4-0.1h1.4c0.1,0,0.2,0,0.3,0.1
		c0.1,0.1,0.1,0.2,0.1,0.3v12.1c0,0.1,0,0.2-0.1,0.3c-0.1,0.1-0.2,0.1-0.3,0.1H273c-0.1,0-0.2,0-0.3-0.1c-0.1-0.1-0.1-0.2-0.1-0.3
		v-8l-2.6,5c-0.1,0.1-0.1,0.2-0.2,0.3c-0.1,0.1-0.2,0.1-0.4,0.1h-0.8c-0.2,0-0.3,0-0.4-0.1s-0.2-0.2-0.2-0.3l-2.6-5v8
		c0,0.1,0,0.2-0.1,0.3c-0.1,0.1-0.2,0.1-0.3,0.1H263.4z"/>
	<path class="st1" d="M280.6,93.6c-0.1,0-0.2,0-0.3-0.1c-0.1-0.1-0.1-0.2-0.1-0.3V81.1c0-0.1,0-0.2,0.1-0.3c0.1-0.1,0.2-0.1,0.3-0.1
		h5.4c1,0,1.8,0.2,2.4,0.5s1.1,0.7,1.4,1.3c0.3,0.5,0.5,1.2,0.5,1.9c0,0.5-0.1,0.9-0.2,1.2c-0.2,0.4-0.4,0.6-0.6,0.9
		c-0.2,0.2-0.5,0.4-0.7,0.5c0.5,0.2,0.9,0.6,1.3,1.1s0.6,1.1,0.6,1.9c0,0.7-0.2,1.4-0.5,2s-0.8,1-1.5,1.4c-0.7,0.3-1.5,0.5-2.4,0.5
		h-5.7V93.6z M282.8,86h2.9c0.7,0,1.1-0.2,1.5-0.5c0.3-0.3,0.5-0.7,0.5-1.2s-0.2-0.9-0.5-1.2s-0.8-0.4-1.5-0.4h-2.9V86z M282.8,91.7
		h3.1c0.7,0,1.2-0.2,1.5-0.5c0.3-0.4,0.5-0.8,0.5-1.3s-0.2-1-0.5-1.4s-0.9-0.5-1.5-0.5h-3.1V91.7z"/>
	<path class="st1" d="M294.2,93.6c-0.1,0-0.2,0-0.3-0.1c-0.1-0.1-0.1-0.2-0.1-0.3c0,0,0-0.1,0-0.2l4.5-12c0-0.1,0.1-0.2,0.2-0.3
		c0.1-0.1,0.2-0.1,0.4-0.1h2c0.2,0,0.3,0,0.4,0.1s0.2,0.2,0.2,0.3l4.5,12c0,0.1,0,0.1,0,0.2s0,0.2-0.1,0.3c-0.1,0.1-0.2,0.1-0.3,0.1
		H304c-0.2,0-0.3,0-0.4-0.1s-0.1-0.2-0.2-0.2l-0.9-2.3H297l-0.9,2.3c0,0.1-0.1,0.2-0.2,0.2c-0.1,0.1-0.2,0.1-0.4,0.1H294.2z
		 M297.8,88.9h4.2l-2.1-5.7L297.8,88.9z"/>
	<path class="st1" d="M310.5,93.6c-0.1,0-0.2,0-0.3-0.1c-0.1-0.1-0.1-0.2-0.1-0.3V81.1c0-0.1,0-0.2,0.1-0.3c0.1-0.1,0.2-0.1,0.3-0.1
		h1.7c0.1,0,0.2,0,0.3,0.1c0.1,0.1,0.1,0.2,0.1,0.3v12.1c0,0.1,0,0.2-0.1,0.3c-0.1,0.1-0.2,0.1-0.3,0.1H310.5z"/>
</g>
</svg>
